<svg width="21" height="21" viewBox="0 0 21 21" fill="none" xmlns="http://www.w3.org/2000/svg">
<g id="book" clip-path="url(#clip0_1248_252)">
<path id="Vector" d="M19.1934 14.5996V1.47461C19.1934 0.955078 18.7754 0.537109 18.2559 0.537109H5.44336C3.37305 0.537109 1.69336 2.2168 1.69336 4.28711V16.7871C1.69336 18.8574 3.37305 20.5371 5.44336 20.5371H18.2559C18.7754 20.5371 19.1934 20.1191 19.1934 19.5996V18.9746C19.1934 18.6816 19.0566 18.416 18.8457 18.2441C18.6816 17.6426 18.6816 15.9277 18.8457 15.3262C19.0566 15.1582 19.1934 14.8926 19.1934 14.5996ZM6.69336 5.77148C6.69336 5.64258 6.79883 5.53711 6.92773 5.53711H15.209C15.3379 5.53711 15.4434 5.64258 15.4434 5.77148V6.55273C15.4434 6.68164 15.3379 6.78711 15.209 6.78711H6.92773C6.79883 6.78711 6.69336 6.68164 6.69336 6.55273V5.77148ZM6.69336 8.27148C6.69336 8.14258 6.79883 8.03711 6.92773 8.03711H15.209C15.3379 8.03711 15.4434 8.14258 15.4434 8.27148V9.05273C15.4434 9.18164 15.3379 9.28711 15.209 9.28711H6.92773C6.79883 9.28711 6.69336 9.18164 6.69336 9.05273V8.27148ZM16.5918 18.0371H5.44336C4.75195 18.0371 4.19336 17.4785 4.19336 16.7871C4.19336 16.0996 4.75586 15.5371 5.44336 15.5371H16.5918C16.5176 16.2051 16.5176 17.3691 16.5918 18.0371Z" fill="white"/>
</g>
<defs>
<clipPath id="clip0_1248_252">
<rect width="20" height="20" fill="white" transform="translate(0.443359 0.537109)"/>
</clipPath>
</defs>
</svg>
