<svg width="27" height="27" viewBox="0 0 27 27" fill="none" xmlns="http://www.w3.org/2000/svg">
<g clip-path="url(#clip0_113_901)">
<path d="M21.2172 12.3966C19.5617 12.3966 17.4848 12.8231 15.8293 13.2497C15.7836 13.0618 15.6871 12.8739 15.5906 12.681C17.0582 11.8278 18.8051 10.6497 19.9883 9.4665C22.3039 7.15088 23.0148 5.49541 22.3496 4.83525C22.2074 4.69307 21.9738 4.59658 21.6895 4.59658C20.8363 4.59658 19.4195 5.44971 17.6727 7.19658C16.4895 8.37978 15.3113 10.1267 14.4582 11.5942C14.2703 11.4978 14.0824 11.4063 13.8895 11.3556C14.316 9.7001 14.7426 7.62314 14.7426 5.96768C14.7426 2.70752 14.0824 1.00635 13.1328 1.00635C12.1832 1.00635 11.523 2.70752 11.523 5.96768C11.523 7.62314 11.9496 9.7001 12.3762 11.3556C12.1883 11.4013 12.0004 11.4978 11.8074 11.5942C10.9543 10.1267 9.77617 8.37978 8.59297 7.19658C6.84609 5.44971 5.4293 4.59658 4.57617 4.59658C4.2918 4.59658 4.10391 4.69307 3.91602 4.83525C3.25586 5.49541 3.96172 7.19658 6.27734 9.4665C7.46055 10.6497 9.25313 11.8278 10.675 12.681C10.5785 12.8688 10.4871 13.0567 10.4363 13.2497C8.78086 12.8231 6.70391 12.3966 5.04844 12.3966C1.78828 12.3966 0.132812 13.0567 0.132812 14.0063C0.132812 14.956 1.83398 15.6567 5.04844 15.6567C6.70391 15.6567 8.83164 15.2302 10.4363 14.8036C10.482 14.9915 10.5785 15.1794 10.675 15.3724C9.20742 16.2255 7.41484 17.4036 6.27734 18.5868C3.96172 20.9075 3.25078 22.563 3.91602 23.2231C4.0582 23.3653 4.2918 23.4618 4.57617 23.4618C5.4293 23.4618 6.84609 22.6087 8.59297 20.8618C9.77617 19.6786 10.9543 17.886 11.8074 16.4185C11.9953 16.5149 12.1832 16.6063 12.3762 16.6571C11.9496 18.3126 11.523 20.3895 11.523 22.045C11.523 25.3052 12.1832 26.9606 13.1328 26.9606C14.0824 26.9606 14.7426 25.3052 14.7426 22.045C14.7426 20.3895 14.316 18.2618 13.8895 16.6571C14.0773 16.6114 14.2652 16.5149 14.4582 16.4185C15.3113 17.886 16.4895 19.6786 17.6727 20.8618C19.4195 22.6087 20.8414 23.4618 21.6895 23.4618C21.9738 23.4618 22.1617 23.3653 22.3496 23.2231C23.0098 22.563 22.3039 20.8618 19.9883 18.5919C18.8051 17.4087 17.0125 16.2306 15.5906 15.3774C15.6871 15.1895 15.7785 15.0017 15.8293 14.8087C17.4848 15.2353 19.5617 15.6618 21.2172 15.6618C24.4773 15.6618 26.1328 15.0017 26.1328 14.052C26.1328 13.0567 24.4316 12.3966 21.2172 12.3966Z" fill="#F9004D"/>
<path d="M17.0075 21.5218C16.4895 21.0038 15.9664 20.3894 15.4942 19.6784C15.6364 20.4808 15.6821 21.3339 15.6821 22.0905C15.6821 22.8015 15.6364 23.5073 15.5856 24.0761C16.3422 25.4472 17.0989 26.1073 17.7133 26.1073C17.8098 26.1073 17.9012 26.1073 17.9977 26.0616C18.7086 25.7772 18.8508 24.594 18.2821 22.6593C17.9063 22.3698 17.4797 21.994 17.0075 21.5218ZM9.25824 6.53623C9.77621 7.0542 10.2993 7.66865 10.8172 8.37959C10.675 7.57725 10.6293 6.72412 10.6293 5.96748C10.6293 5.25654 10.675 4.55068 10.7258 3.98193C9.96918 2.61084 9.21253 1.95068 8.59808 1.95068C8.5016 1.95068 8.41019 1.95068 8.31371 1.99639C7.60277 2.28076 7.46058 3.46397 8.02933 5.39873C8.35941 5.68311 8.78597 6.06397 9.25824 6.53623ZM5.61722 17.9265C6.13519 17.4085 6.80043 16.8855 7.46058 16.3675C6.65824 16.5097 5.80511 16.5554 5.04847 16.5554C4.33754 16.5554 3.63168 16.5097 3.06293 16.4589C1.45316 17.3577 0.793005 18.2058 1.07738 18.871C1.21957 19.2468 1.69183 19.4855 2.44847 19.4855C2.96644 19.4855 3.67738 19.389 4.47972 19.1554C4.81488 18.7796 5.19066 18.353 5.61722 17.9265ZM20.6485 10.1265C20.1305 10.6444 19.4653 11.1675 18.8051 11.6854C19.6075 11.5433 20.4606 11.4976 21.2172 11.4976C21.9282 11.4976 22.634 11.5433 23.2028 11.594C24.8125 10.6952 25.4727 9.84717 25.1883 9.18193C25.0461 8.80615 24.5739 8.56748 23.8172 8.56748C23.2993 8.56748 22.5883 8.66396 21.786 8.89756C21.4508 9.27842 21.075 9.70498 20.6485 10.1265ZM9.20746 21.5218C8.68949 22.0397 8.16644 22.512 7.73988 22.8929C7.26761 24.6397 7.4098 25.7315 8.02425 26.0108C8.12074 26.0565 8.21214 26.0565 8.30863 26.0565C8.96879 26.0565 9.77621 25.2999 10.6243 23.7866C10.5786 23.2687 10.5786 22.6999 10.5786 22.0855C10.5786 21.3288 10.675 20.5265 10.7664 19.6733C10.2942 20.3843 9.77621 20.9987 9.20746 21.5218ZM17.0075 6.53623C17.5254 6.01826 17.9977 5.5917 18.475 5.21084C18.9473 3.41318 18.8508 2.32646 18.1907 2.09287C18.0942 2.04717 18.0028 2.04717 17.9063 2.04717C17.2461 2.04717 16.4387 2.80381 15.5907 4.31709C15.6364 4.83506 15.6364 5.40381 15.6364 6.01826C15.6364 6.7749 15.5399 7.57725 15.4485 8.43037C15.9715 7.71943 16.4895 7.0542 17.0075 6.53623ZM3.3473 11.5483C3.86527 11.5026 4.43402 11.5026 5.04847 11.5026C5.80511 11.5026 6.60746 11.5991 7.46058 11.6905C6.80043 11.2183 6.13519 10.6495 5.61722 10.1315C5.09925 9.61357 4.62699 9.09053 4.24613 8.61826C3.53519 8.43037 2.92074 8.33389 2.44847 8.33389C1.73754 8.33389 1.26527 8.52178 1.12308 8.94834C0.843786 9.6085 1.60043 10.553 3.3473 11.5483ZM22.9184 16.5097C22.4004 16.5554 21.8317 16.5554 21.2172 16.5554C20.4606 16.5554 19.6582 16.4589 18.8051 16.3675C19.4653 16.8397 20.1305 17.4085 20.6485 17.9265C21.1664 18.4444 21.593 18.9675 22.0196 19.394C22.7305 19.5819 23.345 19.6784 23.8172 19.6784C24.5282 19.6784 25.0004 19.4905 25.1426 19.064C25.3762 18.4495 24.6653 17.505 22.9184 16.5097Z" fill="#041524"/>
</g>
<defs>
<clipPath id="clip0_113_901">
<rect width="26" height="26" fill="white" transform="translate(0.132812 0.980957)"/>
</clipPath>
</defs>
</svg>
