<svg width="186" height="28" viewBox="0 0 186 28" fill="none" xmlns="http://www.w3.org/2000/svg">
<path d="M23.7207 9.68799H22.4048C22.0516 8.6512 21.4819 7.54036 20.6958 6.35547C19.9211 5.17057 19.2033 4.53255 18.5425 4.44141C18.1779 4.39583 17.7279 4.35596 17.1924 4.32178C16.6569 4.2876 16.1955 4.27051 15.8081 4.27051H15.0049V23.2915C15.0049 23.7017 15.0789 24.0662 15.2271 24.3853C15.3752 24.6929 15.6657 24.9378 16.0986 25.1201C16.3607 25.2227 16.7651 25.3309 17.312 25.4448C17.8703 25.5474 18.3431 25.6214 18.7305 25.667V27H5.2124V25.667C5.54281 25.6328 6.00423 25.5872 6.59668 25.5303C7.20052 25.4619 7.61068 25.3822 7.82715 25.291C8.27148 25.1087 8.56771 24.8638 8.71582 24.5562C8.86393 24.2485 8.93799 23.884 8.93799 23.4624V4.27051H8.13477C7.7474 4.27051 7.28597 4.2876 6.75049 4.32178C6.21501 4.35596 5.76497 4.39583 5.40039 4.44141C4.73958 4.53255 4.01611 5.17057 3.22998 6.35547C2.45524 7.54036 1.89128 8.6512 1.53809 9.68799H0.222168V2.74951H23.7207V9.68799ZM41.9727 13.1743C41.9727 14.0402 41.7049 14.8035 41.1694 15.4644C40.634 16.1138 39.9276 16.4385 39.0503 16.4385C38.2186 16.4385 37.5122 16.2277 36.9312 15.8062C36.3615 15.3846 36.0767 14.7637 36.0767 13.9434C36.0767 13.5446 36.1051 13.237 36.1621 13.0205C36.2191 12.7926 36.2703 12.5819 36.3159 12.3882C35.7918 12.411 35.2393 12.5933 34.6582 12.9351C34.0771 13.2769 33.5645 13.7326 33.1201 14.3022V23.6846C33.1201 24.0833 33.1828 24.4137 33.3081 24.6758C33.4334 24.9378 33.6442 25.1429 33.9404 25.291C34.1911 25.4163 34.5955 25.5246 35.1538 25.6157C35.7235 25.6955 36.1336 25.741 36.3843 25.7524V27H24.9512V25.7524C25.236 25.7297 25.5208 25.7012 25.8057 25.667C26.1019 25.6214 26.3525 25.5645 26.5576 25.4961C26.9222 25.3708 27.1729 25.1771 27.3096 24.915C27.4463 24.653 27.5146 24.3112 27.5146 23.8896V13.9434C27.5146 13.5332 27.4178 13.1686 27.2241 12.8496C27.0304 12.5192 26.7969 12.2572 26.5234 12.0635C26.3184 11.9268 26.0563 11.8128 25.7373 11.7217C25.4297 11.6305 25.0879 11.5679 24.7119 11.5337V10.2861L32.8638 9.8418L33.1201 10.0981V12.5762H33.1885C33.9746 11.6647 34.8063 10.9526 35.6836 10.4399C36.5723 9.91585 37.4951 9.65381 38.4521 9.65381C39.5117 9.65381 40.3605 9.98421 40.9985 10.645C41.6479 11.2944 41.9727 12.1375 41.9727 13.1743ZM61.5405 22.9155C61.1418 23.5649 60.6576 24.1802 60.0879 24.7612C59.5296 25.3309 58.8916 25.8208 58.1738 26.231C57.4105 26.6639 56.6357 26.9886 55.8496 27.2051C55.0749 27.4329 54.1805 27.5469 53.1665 27.5469C51.4803 27.5469 50.022 27.3076 48.7915 26.8291C47.5724 26.3506 46.5641 25.7069 45.7666 24.8979C44.9691 24.089 44.3709 23.1377 43.9722 22.0439C43.5848 20.9388 43.3911 19.7425 43.3911 18.4551C43.3911 17.293 43.6019 16.1821 44.0234 15.1226C44.4564 14.0516 45.0659 13.1003 45.8521 12.2686C46.6268 11.4596 47.6009 10.8045 48.7744 10.3032C49.9593 9.80192 51.2809 9.55127 52.7393 9.55127C54.3343 9.55127 55.6445 9.74495 56.6699 10.1323C57.6953 10.5197 58.5441 11.0552 59.2163 11.7388C59.8657 12.3882 60.3385 13.1572 60.6348 14.0459C60.931 14.9232 61.0791 15.846 61.0791 16.8145V17.9253H49.5264C49.5264 20.2609 49.9764 22.0382 50.8765 23.2573C51.7765 24.4764 53.2064 25.0859 55.166 25.0859C56.237 25.0859 57.1997 24.7954 58.0542 24.2144C58.9087 23.6219 59.6379 22.8757 60.2417 21.9756L61.5405 22.9155ZM55.0122 16.4214C55.0122 15.7378 54.978 15.0371 54.9097 14.3193C54.8413 13.6016 54.7217 13.0148 54.5508 12.5591C54.3571 12.0236 54.0894 11.6191 53.7476 11.3457C53.4172 11.0723 52.9956 10.9355 52.4829 10.9355C51.6056 10.9355 50.9049 11.3799 50.3809 12.2686C49.8568 13.1572 49.5719 14.5643 49.5264 16.4897L55.0122 16.4214ZM85.7568 27H75.4688V25.7524C75.6852 25.7297 75.9473 25.7012 76.2549 25.667C76.5625 25.6328 76.7961 25.5758 76.9556 25.4961C77.1948 25.3708 77.3657 25.1885 77.4683 24.9492C77.5708 24.71 77.6221 24.3568 77.6221 23.8896V15.8916C77.6221 14.7295 77.4056 13.8579 76.9727 13.2769C76.5511 12.6844 75.9245 12.3882 75.0928 12.3882C74.637 12.3882 74.2098 12.4565 73.811 12.5933C73.4237 12.73 73.042 12.9294 72.666 13.1914C72.3356 13.4193 72.0679 13.6528 71.8628 13.8921C71.6691 14.1313 71.5039 14.3421 71.3672 14.5244V23.7017C71.3672 24.1004 71.4242 24.4365 71.5381 24.71C71.652 24.972 71.84 25.1714 72.1021 25.3081C72.2843 25.4106 72.5122 25.5018 72.7856 25.5815C73.0591 25.6613 73.3268 25.7183 73.5889 25.7524V27H63.1982V25.7524C63.4831 25.7297 63.7679 25.7012 64.0527 25.667C64.349 25.6214 64.5996 25.5645 64.8047 25.4961C65.1693 25.3708 65.4199 25.1771 65.5566 24.915C65.6934 24.653 65.7617 24.3112 65.7617 23.8896V13.9434C65.7617 13.5902 65.6706 13.2427 65.4883 12.9009C65.306 12.5591 65.0667 12.2799 64.7705 12.0635C64.5654 11.9268 64.3034 11.8128 63.9844 11.7217C63.6768 11.6305 63.335 11.5679 62.959 11.5337V10.2861L71.1108 9.8418L71.3672 10.0981V12.5762H71.4355C71.7546 12.2913 72.1419 11.9495 72.5977 11.5508C73.0534 11.152 73.4749 10.8273 73.8623 10.5767C74.2839 10.3032 74.8364 10.0697 75.52 9.87598C76.2036 9.68229 76.9328 9.58545 77.7075 9.58545C79.5646 9.58545 80.9546 10.1152 81.8774 11.1748C82.8117 12.223 83.2788 13.6187 83.2788 15.3618V23.7358C83.2788 24.1574 83.3415 24.4935 83.4668 24.7441C83.5921 24.9948 83.8257 25.1942 84.1675 25.3423C84.3498 25.422 84.5719 25.5018 84.834 25.5815C85.1074 25.6613 85.415 25.7183 85.7568 25.7524V27ZM109.46 26.6411L101.035 27.1367L100.779 26.8975V25.3252L100.659 25.291C100.101 25.8949 99.3433 26.4246 98.3862 26.8804C97.4406 27.3247 96.4836 27.5469 95.5151 27.5469C93.2137 27.5469 91.3167 26.6924 89.8242 24.9834C88.3317 23.2744 87.5854 21.0641 87.5854 18.3525C87.5854 15.9486 88.4172 13.8864 90.0806 12.166C91.7554 10.4456 93.7777 9.58545 96.1475 9.58545C97.0817 9.58545 97.959 9.69368 98.7793 9.91016C99.5996 10.1152 100.255 10.3602 100.745 10.645V5.05664C100.745 4.63509 100.659 4.24202 100.488 3.87744C100.317 3.50146 100.09 3.21094 99.8047 3.00586C99.4515 2.75521 99.0072 2.57861 98.4717 2.47607C97.9476 2.36214 97.4178 2.28239 96.8823 2.23682V0.989258L106.111 0.544922L106.367 0.818359V23.2231C106.367 23.6561 106.436 24.0207 106.572 24.3169C106.72 24.6131 106.954 24.8467 107.273 25.0176C107.512 25.1429 107.86 25.234 108.315 25.291C108.783 25.348 109.164 25.3822 109.46 25.3936V26.6411ZM100.745 23.5991V13.9434C100.665 13.6813 100.551 13.3908 100.403 13.0718C100.266 12.7528 100.072 12.4508 99.8218 12.166C99.5939 11.9268 99.2863 11.716 98.8989 11.5337C98.5229 11.3514 98.0957 11.2603 97.6172 11.2603C96.4779 11.2603 95.5436 11.904 94.8145 13.1914C94.0853 14.4788 93.7207 16.2961 93.7207 18.6431C93.7207 19.5659 93.7834 20.3976 93.9087 21.1382C94.0454 21.8674 94.279 22.5339 94.6094 23.1377C94.9398 23.7415 95.3613 24.2144 95.874 24.5562C96.3981 24.8979 97.0247 25.0688 97.7539 25.0688C98.4489 25.0688 99.0243 24.9378 99.48 24.6758C99.9357 24.4023 100.357 24.0435 100.745 23.5991Z" fill="#041524"/>
<path d="M132.498 27H124.448C123.457 25.2568 122.551 23.7814 121.731 22.5737C120.911 21.3547 120.136 20.2267 119.407 19.1899L118.381 20.0615V23.7871C118.381 24.1973 118.438 24.5334 118.552 24.7954C118.678 25.0575 118.911 25.2511 119.253 25.3765C119.458 25.4676 119.697 25.5474 119.971 25.6157C120.244 25.6841 120.518 25.7297 120.791 25.7524V27H110.212V25.7524C110.497 25.7297 110.782 25.7012 111.067 25.667C111.352 25.6214 111.602 25.5645 111.819 25.4961C112.183 25.3708 112.428 25.1771 112.554 24.915C112.69 24.653 112.759 24.3112 112.759 23.8896V4.83447C112.759 4.4585 112.673 4.07113 112.502 3.67236C112.343 3.26221 112.104 2.95459 111.785 2.74951C111.568 2.61279 111.243 2.49886 110.811 2.40771C110.378 2.31657 109.985 2.2596 109.631 2.23682V0.989258L118.125 0.544922L118.381 0.818359V18.4551C119.224 17.7031 120.17 16.8315 121.218 15.8403C122.278 14.8491 123.127 14.0288 123.765 13.3794C124.141 12.992 124.346 12.7015 124.38 12.5078C124.425 12.3027 124.448 12.1774 124.448 12.1318C124.448 11.9268 124.266 11.7559 123.901 11.6191C123.548 11.4824 123.013 11.3628 122.295 11.2603V10.0469H130.977V11.2261C129.837 11.5451 128.966 11.847 128.362 12.1318C127.769 12.4053 127.12 12.7756 126.414 13.2427C125.946 13.5503 125.491 13.875 125.046 14.2168C124.613 14.5472 124.112 14.9631 123.542 15.4644C124.659 17.0822 125.69 18.5804 126.636 19.959C127.581 21.3376 128.573 22.7959 129.609 24.334C129.963 24.8695 130.401 25.2284 130.925 25.4106C131.449 25.5929 131.973 25.7069 132.498 25.7524V27ZM143.486 27H132.686V25.7524C132.982 25.7297 133.272 25.7012 133.557 25.667C133.842 25.6328 134.087 25.5758 134.292 25.4961C134.657 25.3594 134.913 25.1657 135.061 24.915C135.209 24.653 135.283 24.3112 135.283 23.8896V13.9434C135.283 13.5446 135.192 13.1971 135.01 12.9009C134.827 12.5933 134.6 12.3483 134.326 12.166C134.121 12.0293 133.808 11.8983 133.386 11.7729C132.976 11.6476 132.6 11.5679 132.258 11.5337V10.2861L140.632 9.8418L140.889 10.0981V23.6675C140.889 24.0662 140.974 24.408 141.145 24.6929C141.316 24.9663 141.561 25.1714 141.88 25.3081C142.108 25.4106 142.358 25.5018 142.632 25.5815C142.905 25.6613 143.19 25.7183 143.486 25.7524V27ZM140.991 3.68945C140.991 4.55534 140.655 5.2959 139.983 5.91113C139.322 6.51497 138.536 6.81689 137.625 6.81689C136.702 6.81689 135.904 6.51497 135.232 5.91113C134.571 5.2959 134.241 4.55534 134.241 3.68945C134.241 2.82357 134.571 2.08301 135.232 1.46777C135.904 0.852539 136.702 0.544922 137.625 0.544922C138.547 0.544922 139.339 0.852539 140 1.46777C140.661 2.08301 140.991 2.82357 140.991 3.68945ZM167.617 27H157.329V25.7524C157.546 25.7297 157.808 25.7012 158.115 25.667C158.423 25.6328 158.656 25.5758 158.816 25.4961C159.055 25.3708 159.226 25.1885 159.329 24.9492C159.431 24.71 159.482 24.3568 159.482 23.8896V15.8916C159.482 14.7295 159.266 13.8579 158.833 13.2769C158.411 12.6844 157.785 12.3882 156.953 12.3882C156.497 12.3882 156.07 12.4565 155.671 12.5933C155.284 12.73 154.902 12.9294 154.526 13.1914C154.196 13.4193 153.928 13.6528 153.723 13.8921C153.529 14.1313 153.364 14.3421 153.228 14.5244V23.7017C153.228 24.1004 153.285 24.4365 153.398 24.71C153.512 24.972 153.7 25.1714 153.962 25.3081C154.145 25.4106 154.373 25.5018 154.646 25.5815C154.919 25.6613 155.187 25.7183 155.449 25.7524V27H145.059V25.7524C145.343 25.7297 145.628 25.7012 145.913 25.667C146.209 25.6214 146.46 25.5645 146.665 25.4961C147.03 25.3708 147.28 25.1771 147.417 24.915C147.554 24.653 147.622 24.3112 147.622 23.8896V13.9434C147.622 13.5902 147.531 13.2427 147.349 12.9009C147.166 12.5591 146.927 12.2799 146.631 12.0635C146.426 11.9268 146.164 11.8128 145.845 11.7217C145.537 11.6305 145.195 11.5679 144.819 11.5337V10.2861L152.971 9.8418L153.228 10.0981V12.5762H153.296C153.615 12.2913 154.002 11.9495 154.458 11.5508C154.914 11.152 155.335 10.8273 155.723 10.5767C156.144 10.3032 156.697 10.0697 157.38 9.87598C158.064 9.68229 158.793 9.58545 159.568 9.58545C161.425 9.58545 162.815 10.1152 163.738 11.1748C164.672 12.223 165.139 13.6187 165.139 15.3618V23.7358C165.139 24.1574 165.202 24.4935 165.327 24.7441C165.452 24.9948 165.686 25.1942 166.028 25.3423C166.21 25.422 166.432 25.5018 166.694 25.5815C166.968 25.6613 167.275 25.7183 167.617 25.7524V27ZM177.136 27.5811C176.031 27.5811 174.949 27.4159 173.889 27.0854C172.841 26.7664 172.026 26.4246 171.445 26.0601L170.933 27.2222H169.6L169.377 20.8477H170.625C170.796 21.3604 171.081 21.9414 171.479 22.5908C171.878 23.2288 172.334 23.8042 172.847 24.3169C173.382 24.8296 173.992 25.2625 174.675 25.6157C175.37 25.9689 176.111 26.1455 176.897 26.1455C177.934 26.1455 178.703 25.9461 179.204 25.5474C179.717 25.1372 179.973 24.5106 179.973 23.6675C179.973 23.2118 179.859 22.8358 179.631 22.5396C179.403 22.2433 179.09 21.987 178.691 21.7705C178.247 21.5426 177.757 21.349 177.222 21.1895C176.698 21.0299 176.048 20.8363 175.273 20.6084C174.499 20.3805 173.832 20.1527 173.274 19.9248C172.727 19.6855 172.157 19.3153 171.565 18.814C171.052 18.3696 170.642 17.8341 170.334 17.2075C170.027 16.5809 169.873 15.8346 169.873 14.9688C169.873 13.3623 170.545 12.0635 171.89 11.0723C173.245 10.0811 175.017 9.58545 177.205 9.58545C178.241 9.58545 179.193 9.69368 180.059 9.91016C180.936 10.1152 181.671 10.3431 182.263 10.5938L182.622 9.58545H183.921L184.194 15.4131H182.981C182.582 14.2282 181.899 13.2085 180.93 12.354C179.962 11.4881 178.919 11.0552 177.803 11.0552C176.925 11.0552 176.236 11.2375 175.735 11.6021C175.234 11.9666 174.983 12.4736 174.983 13.123C174.983 13.9889 175.347 14.6156 176.077 15.0029C176.817 15.3903 177.848 15.7549 179.17 16.0967C181.209 16.6208 182.702 17.3385 183.647 18.25C184.593 19.1501 185.066 20.3008 185.066 21.7021C185.066 23.5706 184.331 25.0176 182.861 26.043C181.403 27.0684 179.495 27.5811 177.136 27.5811Z" fill="#F9004D"/>
</svg>
