<svg width="21" height="21" viewBox="0 0 21 21" fill="none" xmlns="http://www.w3.org/2000/svg">
<circle cx="10.0078" cy="10.5953" r="10" fill="#EC1D27"/>
<path d="M12.22 10.5953L14.5686 8.2467C14.7981 8.01721 14.7981 7.64612 14.5686 7.41663L13.1868 6.03479C12.9573 5.8053 12.5862 5.8053 12.3567 6.03479L10.0081 8.38342L7.65942 6.03479C7.42993 5.8053 7.05884 5.8053 6.82934 6.03479L5.44751 7.41663C5.21802 7.64612 5.21802 8.01721 5.44751 8.2467L7.79614 10.5953L5.44751 12.944C5.21802 13.1735 5.21802 13.5446 5.44751 13.774L6.82934 15.1559C7.05884 15.3854 7.42993 15.3854 7.65942 15.1559L10.0081 12.8073L12.3567 15.1559C12.5862 15.3854 12.9573 15.3854 13.1868 15.1559L14.5686 13.774C14.7981 13.5446 14.7981 13.1735 14.5686 12.944L12.22 10.5953Z" fill="white"/>
</svg>
